<?xml version="1.0" standalone="no"?>
<!DOCTYPE svg PUBLIC "-//W3C//DTD SVG 20010904//EN"
 "http://www.w3.org/TR/2001/REC-SVG-20010904/DTD/svg10.dtd">
<svg version="1.0" xmlns="http://www.w3.org/2000/svg"
 width="512.000000pt" height="512.000000pt" viewBox="0 0 512.000000 512.000000"
 preserveAspectRatio="xMidYMid meet">

<g transform="translate(0.000000,512.000000) scale(0.100000,-0.100000)"
fill="#ffffff" stroke="none">
<path d="M2415 5113 c-284 -35 -534 -128 -748 -280 -45 -32 -132 -107 -192
-168 -169 -168 -286 -354 -365 -582 l-32 -93 -462 -414 c-529 -474 -524 -469
-561 -537 -57 -106 -55 -48 -55 -1409 0 -1031 3 -1264 14 -1306 41 -155 171
-280 324 -313 75 -16 4368 -16 4444 0 157 33 293 170 327 327 8 38 11 414 11
1300 0 1333 1 1292 -49 1391 -35 68 -83 114 -572 553 l-457 409 -32 92 c-134
386 -404 694 -765 872 -187 92 -311 129 -515 154 -80 10 -249 12 -315 4z m420
-192 c565 -122 984 -564 1075 -1136 17 -104 14 -317 -5 -431 -45 -264 -170
-512 -357 -709 -112 -119 -230 -205 -383 -280 -221 -109 -409 -150 -650 -142
-212 7 -386 51 -569 144 -136 68 -229 136 -347 253 -265 263 -400 590 -400
964 0 198 30 352 102 526 186 446 611 769 1095 830 104 13 335 3 439 -19z
m-1808 -1275 c-8 -84 8 -273 32 -384 170 -778 903 -1299 1691 -1202 643 79
1172 565 1311 1202 24 111 40 300 32 385 -4 41 -3 64 4 62 5 -2 175 -152 376
-334 346 -310 366 -330 350 -345 -10 -10 -495 -363 -1078 -786 -1064 -771
-1111 -803 -1190 -803 -72 0 -143 44 -810 505 -374 258 -868 600 -1098 758
-359 249 -415 291 -405 304 20 24 778 702 785 702 3 0 3 -29 0 -64z m3922
-2016 c1 -782 -3 -1248 -9 -1270 -5 -20 -16 -44 -23 -55 -13 -17 -67 20 -793
545 -428 310 -830 601 -892 646 l-113 83 53 39 c29 21 368 267 753 547 385
279 770 559 855 621 127 92 156 109 162 96 4 -9 7 -573 7 -1252z m-4087 719
c376 -260 781 -539 901 -622 119 -83 217 -154 217 -157 0 -7 -1742 -1272
-1760 -1278 -5 -2 -17 12 -27 30 -17 31 -18 98 -21 1266 -1 677 0 1232 3 1232
2 0 312 -212 687 -471z m3008 -1526 c576 -417 876 -640 867 -645 -16 -10
-4338 -10 -4354 0 -8 5 40 46 140 118 83 61 375 272 647 469 272 197 599 434
727 527 127 92 236 168 241 168 6 0 59 -33 119 -74 136 -91 190 -111 303 -110
111 1 169 24 302 119 57 41 109 72 115 70 7 -3 409 -291 893 -642z"/>
<path d="M2410 4770 c-298 -37 -591 -202 -781 -438 -89 -112 -189 -309 -225
-447 -39 -145 -45 -385 -14 -534 185 -903 1262 -1267 1958 -663 87 76 101 123
52 172 -37 37 -80 27 -158 -39 -143 -120 -263 -184 -427 -228 -88 -23 -119
-26 -255 -26 -136 0 -167 3 -253 26 -305 82 -535 273 -672 560 -74 153 -90
233 -90 432 1 180 8 226 61 365 174 465 674 737 1164 635 310 -65 574 -272
711 -560 83 -173 94 -232 94 -501 0 -229 0 -231 -25 -267 -41 -61 -92 -91
-164 -95 -69 -5 -109 10 -159 57 -63 58 -62 47 -67 499 l-5 414 -28 24 c-37
31 -81 31 -112 -1 -21 -20 -25 -34 -25 -85 0 -33 -3 -60 -7 -60 -4 0 -18 11
-32 24 -41 39 -138 93 -210 118 -88 31 -267 33 -351 4 -98 -34 -169 -75 -237
-140 -128 -120 -187 -258 -187 -431 0 -147 38 -256 128 -373 205 -265 617
-298 862 -69 34 31 64 57 68 57 3 0 12 -12 20 -27 19 -37 79 -99 124 -127 106
-66 258 -75 368 -21 75 37 142 104 180 180 l29 60 -1 260 c0 252 -1 263 -28
360 -122 445 -474 777 -922 870 -94 19 -287 27 -384 15z m256 -774 c210 -56
349 -267 314 -475 -24 -143 -114 -261 -247 -324 -128 -59 -293 -46 -407 33
-147 100 -218 271 -182 439 50 238 290 389 522 327z"/>
</g>
</svg>
