<svg xmlns="http://www.w3.org/2000/svg" viewBox="0 0 20 20"><defs><style>.cls-1{fill:#fff;}</style></defs><g id="ELEMENTS"><path class="cls-1" d="M20,10A10,10,0,1,0,8.44,19.85v-7H5.9V10H8.44V7.77a3.52,3.52,0,0,1,3.77-3.89,15.72,15.72,0,0,1,2.24.19V6.53H13.19A1.45,1.45,0,0,0,11.56,8.1V10h2.78l-.45,2.89H11.56v7A10,10,0,0,0,20,10Z"/><path d="M13.89,12.86,14.34,10H11.56V8.1a1.45,1.45,0,0,1,1.63-1.57h1.26V4.07a15.72,15.72,0,0,0-2.24-.19A3.52,3.52,0,0,0,8.44,7.77V10H5.9v2.89H8.44v7a10.2,10.2,0,0,0,3.12,0v-7Z"/></g></svg>