<?xml version="1.0" encoding="utf-8"?>
<!-- Generator: Adobe Illustrator 25.0.0, SVG Export Plug-In . SVG Version: 6.00 Build 0)  -->
<svg version="1.1" id="Layer_1" xmlns="http://www.w3.org/2000/svg" xmlns:xlink="http://www.w3.org/1999/xlink" x="0px" y="0px"
	 viewBox="0 0 30 31.2" style="enable-background:new 255 255 255 31.2;" xml:space="preserve">
<style type="text/css">
	.st0{fill:none;stroke:#fff;stroke-linecap:round;stroke-linejoin:round;}
	.st1{display:none;}
	.st2{display:inline;fill:none;stroke:#fff;stroke-linecap:round;stroke-linejoin:round;}
</style>
<path class="st0" d="M129.7-119.7l1.6,3.2l3.5,0.5l-2.5,2.5l0.6,3.5l-3.1-1.7l-3.1,1.7l0.6-3.5l-2.5-2.5l3.5-0.5L129.7-119.7z"/>
<ellipse class="st0" cx="129.8" cy="-114.1" rx="20.1" ry="8.1"/>
<ellipse transform="matrix(0.5 -0.866 0.866 0.5 163.7166 55.4069)" class="st0" cx="129.8" cy="-114.1" rx="20.1" ry="8.1"/>
<ellipse transform="matrix(0.866 -0.5 0.5 0.866 74.4351 49.6373)" class="st0" cx="129.8" cy="-114.1" rx="8.1" ry="20.1"/>
<path class="st0" d="M112.8-43.7c0-5.2,4-9.6,9.2-9.8c2.7-0.1,5.6-0.2,8-0.2c2.4,0,5.3,0.1,8,0.2c5.2,0.3,9.2,4.6,9.2,9.8v4.5
	c0,5.2-4,9.6-9.2,9.8c-2.7,0.1-5.6,0.2-8,0.2c-2.4,0-5.3-0.1-8-0.2c-5.2-0.3-9.2-4.6-9.2-9.8V-43.7z"/>
<path class="st0" d="M125.1-35.7v-11.5l11.5,5.7L125.1-35.7z"/>
<g id="idea" class="st1">
	<path class="st2" d="M12.9,25.8v3.2l0.8,0.5c1.1,0.7,2.5,0.7,3.6,0l0.8-0.5v-3.2 M12.9,25.8L12.9,25.8c0-1.4-0.9-2.7-2.1-3.6
		c-1.9-1.5-3.1-3.8-3.1-6.5c0-4.5,3.4-8.1,7.7-8.1c4.2,0,7.7,3.6,7.7,8.1c0,2.6-1.2,5-3.1,6.5c-1.1,0.9-2.1,2.1-2.1,3.6l0,0
		 M12.9,25.8H18"/>
	<path class="st2" d="M21.2,1.4l-1.7,3.9 M28.9,9.1l-3.3,1.7 M9.9,1.1L11.6,5 M1.1,7.2l3.6,3"/>
</g>
<path class="st0" d="M124.9,104.2c0-4.6,3.5-8.4,8.1-8.6c1.6-0.1,3.2-0.1,4.6-0.1c1.3,0,2.8,0,4.2,0.1c4.8,0.2,8.4,4.2,8.4,9l0,0
	v1.9c0,1.5-0.5,2.9-1.5,4.1l0,0c-1.4,1.6-1.9,3.7-1.3,5.7l0.6,2.2l-7.9-5.5l-6.4,0.1C128.9,112.9,124.9,109,124.9,104.2L124.9,104.2
	z"/>
<path class="st0" d="M124.8,103.8H121l-7.1,4.8l0.5-1.3c0.8-2.4,0.1-5-1.8-6.6l0,0c-1.3-1.1-2.1-2.8-2.1-4.6v-1.4
	c0-4.7,3.6-8.7,8.4-8.9c1.8-0.1,3.6-0.1,5.1-0.1c1.1,0,2.3,0,3.5,0c5.2,0,9.5,4.2,9.6,9.4l0,0"/>
<path class="st0" d="M126.7,184.8v4l0.9,0.6c1.3,0.9,3.1,0.9,4.4,0l0.9-0.6v-4 M126.7,184.8L126.7,184.8c0-1.8-1.2-3.3-2.5-4.4
	c-2.3-1.8-3.7-4.7-3.7-7.9c0-5.5,4.2-9.9,9.4-9.9c5.2,0,9.4,4.4,9.4,9.9c0,3.2-1.5,6.1-3.7,7.9c-1.4,1.1-2.5,2.6-2.5,4.4l0,0
	 M126.7,184.8h6.3"/>
<path class="st0" d="M126.5,173.1l4.9-4.6l-1,3.9l3.1,0.8l-5.4,4.9l1.1-4.2L126.5,173.1z"/>
<path class="st0" d="M136.9,154.9l-2,4.7 M146.4,164.3l-4.1,2 M123.1,154.5l2,4.7 M112.3,162l4.4,3.7"/>
<path class="st0" d="M118,229.7h23.2l-1.7,13.8c-0.4,3.1-2.4,5.7-5.2,6.9l0,0c-1.7,0.7-2.9,2.2-3.1,4l-0.2,1.5
	c-0.2,1.7,0.6,3.3,2.1,4.1l6,3.2h-9.5h-8.8l5.4-3.1c1.4-0.8,2.2-2.4,1.9-4l-0.2-1.6c-0.3-1.8-1.4-3.3-3.1-4l0,0
	c-2.9-1.2-4.8-3.8-5.2-6.9L118,229.7z"/>
<path class="st0" d="M139.6,244.2c3.3,0.5,6.3-1.7,6.9-5c0.5-3.3-1.7-6.3-5-6.9"/>
<path class="st0" d="M119.6,244.3c-3.3,0.5-6.3-1.8-6.8-5.1c-0.5-3.3,1.8-6.3,5.1-6.8"/>
<path class="st0" d="M120.4,325.4l-6.1-6.8l6.4-7.1"/>
<path class="st0" d="M139.3,311.5l6.1,6.8l-6.4,7.1"/>
<line class="st0" x1="125.3" y1="328.8" x2="135.4" y2="308"/>
<g>
	<path class="st0" d="M29.1,15.6c0,7.8-6.3,14.1-14.1,14.1c-1.3,0-2.5-0.2-3.7-0.5c-6-1.6-10.3-7.1-10.3-13.6
		c0-6.8,4.8-12.5,11.2-13.8C13.1,1.6,14,1.5,15,1.5C22.8,1.5,29.1,7.8,29.1,15.6z"/>
	<g>
		<path class="st0" d="M9.6,2.8c0,0-8.3,12.8,0,25.6"/>
		<path class="st0" d="M20.4,28.4c0,0,8.3-12.8,0-25.6"/>
		<line class="st0" x1="15" y1="1.5" x2="15" y2="29.7"/>
	</g>
	<g>
		<line class="st0" x1="3.5" y1="7.7" x2="26.5" y2="7.7"/>
		<line class="st0" x1="3.5" y1="23.5" x2="26.5" y2="23.5"/>
		<line class="st0" x1="1" y1="15.6" x2="29" y2="15.6"/>
	</g>
</g>
</svg>
