<?xml version="1.0" encoding="UTF-8"?>
<svg xmlns="http://www.w3.org/2000/svg" xmlns:xlink="http://www.w3.org/1999/xlink" viewBox="0 0 100 100" width="100px" height="100px">
<g id="surface120916830">
<path style=" stroke:none;fill-rule:nonzero;fill:rgb(100%,100%,100%);fill-opacity:1;" d="M 82 8 L 18 8 C 12.480469 8 8 12.480469 8 18 L 8 82 C 8 87.519531 12.480469 92 18 92 L 82 92 C 87.519531 92 92 87.519531 92 82 L 92 18 C 92 12.480469 87.519531 8 82 8 Z M 34 40 L 34 78 L 22 78 L 22 40 Z M 22 28.941406 C 22 26.140625 24.398438 24 28 24 C 31.601562 24 33.859375 26.140625 34 28.941406 C 34 31.738281 31.761719 34 28 34 C 24.398438 34 22 31.738281 22 28.941406 Z M 78 78 L 66 78 C 66 78 66 59.480469 66 58 C 66 54 64 50 59 49.921875 L 58.839844 49.921875 C 54 49.921875 52 54.039062 52 58 C 52 59.820312 52 78 52 78 L 40 78 L 40 40 L 52 40 L 52 45.121094 C 52 45.121094 55.859375 40 63.621094 40 C 71.558594 40 78 45.460938 78 56.519531 Z M 78 78 "/>
</g>
</svg>
