<?xml version="1.0" standalone="no"?>
<!DOCTYPE svg PUBLIC "-//W3C//DTD SVG 20010904//EN"
 "http://www.w3.org/TR/2001/REC-SVG-20010904/DTD/svg10.dtd">
<svg version="1.0" xmlns="http://www.w3.org/2000/svg"
 width="225.000000pt" height="225.000000pt" viewBox="0 0 225.000000 225.000000"
 preserveAspectRatio="xMidYMid meet">

<g transform="translate(0.000000,225.000000) scale(0.100000,-0.100000)"
fill="#e88a2b" stroke="none">
<path d="M965 1931 c-198 -57 -358 -221 -409 -417 -31 -122 -15 -278 41 -389
32 -62 524 -705 535 -698 24 13 508 649 533 700 85 168 77 375 -22 542 -73
122 -217 229 -360 266 -78 20 -241 18 -318 -4z m313 -220 c66 -34 128 -97 159
-160 23 -46 28 -69 27 -131 -1 -115 -46 -201 -137 -264 -175 -120 -408 -59
-498 129 -40 82 -41 184 -3 265 32 69 109 143 177 170 72 28 212 24 275 -9z"/>
<path d="M845 549 c-193 -20 -316 -60 -345 -112 -22 -40 1 -75 70 -109 179
-88 809 -99 1081 -18 157 47 160 149 6 195 -63 19 -210 42 -291 47 -58 3 -58
3 -93 -39 l-36 -43 54 0 c114 0 351 -40 364 -61 3 -4 -14 -13 -37 -20 -247
-67 -814 -61 -998 9 l-25 10 27 10 c46 18 186 42 289 49 55 3 99 8 99 10 0 11
-65 83 -74 82 -6 -1 -47 -5 -91 -10z"/>
</g>
</svg>
